HIERARCHY
ROOT Hips
{
	OFFSET 0.000000 0.000000 0.000000 
	CHANNELS 6 Xposition Yposition Zposition Yrotation Zrotation Xrotation 
	JOINT Lumbar
	{
		OFFSET 0.000000 0.000000 0.000000 
		CHANNELS 3 Zrotation Xrotation Yrotation
		JOINT Neck
		{
			OFFSET 0.000000 0.445665 0.000000 
			CHANNELS 3 Zrotation Xrotation Yrotation
			End Site
			{
				OFFSET 0.000000 0.227535 0.000000 
			}
		}
		JOINT RightShoulder
		{
			OFFSET 0.019635 0.377685 0.194865 
			CHANNELS 3 Zrotation Xrotation Yrotation
			JOINT RightElbow
			{
				OFFSET 0.000000 -0.243375 0.000000 
				CHANNELS 2 Zrotation Yrotation
				JOINT RightWrist
				{
					OFFSET 0.000000 -0.264825 0.000000 
					CHANNELS 2 Zrotation Xrotation
					End Site
					{
						OFFSET 0.006600 -0.176220 0.000990 
					}
				}
			}
		}
		JOINT LeftShoulder
		{
			OFFSET 0.019635 0.377685 -0.194865 
			CHANNELS 3 Zrotation Xrotation Yrotation
			JOINT LeftElbow
			{
				OFFSET 0.000000 -0.243375 0.000000 
				CHANNELS 2 Zrotation Yrotation
				JOINT LeftWrist
				{
					OFFSET 0.000000 -0.264825 0.000000 
					CHANNELS 2 Zrotation Xrotation
					End Site
					{
						OFFSET 0.006600 -0.176220 -0.000990 
					}
				}
			}
		}
	}
	JOINT RightHip
	{
		OFFSET 0.052140 -0.069960 0.075570 
		CHANNELS 3 Zrotation Xrotation Yrotation
		JOINT RightKnee
		{
			OFFSET 0.000000 -0.402270 0.000000 
			CHANNELS 1 Zrotation
			JOINT RightAnkle
			{
				OFFSET 0.000000 -0.404085 0.000000 
				CHANNELS 3 Zrotation Xrotation Yrotation
				End Site
				{
					OFFSET 0.204105 -0.089430 0.008415 
				}
			}
		}
	}
	JOINT LeftHip
	{
		OFFSET 0.052140 -0.069960 -0.075570 
		CHANNELS 3 Zrotation Xrotation Yrotation
		JOINT LeftKnee
		{
			OFFSET 0.000000 -0.402270 0.000000 
			CHANNELS 1 Zrotation
			JOINT LeftAnkle
			{
				OFFSET 0.000000 -0.404085 0.000000 
				CHANNELS 3 Zrotation Xrotation Yrotation
				End Site
				{
					OFFSET 0.204105 -0.089430 -0.008415 
				}
			}
		}
	}
}
MOTION
Frames: 32
Frame Time: 0.02
0 0.95578 -0 144.94027 0 -4.63899 8.18932 5.71189 -7.2525 -41.26778 1.05095 0.88589 34.81396 -15.2738 -3.04606 10.10484 81.99034 -2.52144 -3.65852 33.75017 12.93124 -17.31548 10.44884 -81.95783 -3.86371 2.71803 -7.6967 5.28927 3.32319 -8.9952 -9.54633 -2.03111 -8.46263 -8.42395 4.17117 18.74578 -2.25533 -3.86918 2.66006 7.37089
-0.00102 0.95552 0.00031 144.82438 0 -4.6453 8.1686 5.74477 -7.17528 -41.26597 1.04246 0.98936 34.72834 -15.40087 -3.14882 10.05964 81.98389 -2.51414 -3.62975 33.52795 12.84248 -17.03205 10.33047 -81.91573 -3.81781 2.6837 -7.75685 5.1951 3.65448 -8.93907 -9.50207 -2.02574 -8.35491 -8.27586 4.15731 18.64949 -2.68655 -3.54588 2.74592 7.64316
-0.00205 0.95526 0.00062 144.70624 0 -4.65185 8.1478 5.77887 -7.09722 -41.26442 1.03332 1.0921 34.6438 -15.52767 -3.25156 10.0146 81.97704 -2.50678 -3.60107 33.30702 12.75386 -16.75084 10.21263 -81.87388 -3.77197 2.64936 -7.81579 5.10078 3.98657 -8.88466 -9.4576 -2.02045 -8.24819 -8.12891 4.14272 18.55533 -3.11616 -3.22352 2.83159 7.91485
-0.0031 0.955 0.00096 144.58042 0 -4.65928 8.12744 5.81704 -7.01419 -41.26413 1.02179 1.19337 34.56137 -15.65412 -3.35591 9.9692 81.96847 -2.49888 -3.57191 33.08914 12.66505 -16.47343 10.09564 -81.83311 -3.72593 2.61466 -7.87299 5.00533 4.32157 -8.83208 -9.41292 -2.01538 -8.14315 -7.98337 4.12639 18.46596 -3.54598 -2.9012 2.91763 8.18821
-0.004 0.95474 0.00118 144.49821 0 -4.66188 8.10595 5.83231 -6.95641 -41.25747 1.02325 1.30294 34.46608 -15.78181 -3.45263 9.92504 81.96892 -2.49356 -3.54463 32.85516 12.57741 -16.17309 9.97404 -81.7872 -3.68096 2.58187 -7.94249 4.9163 4.63686 -8.76429 -9.3707 -2.00905 -8.02764 -7.8283 4.12087 18.34791 -3.97765 -2.57804 3.00206 8.45433
-0.00524 0.95447 0.00165 144.32185 0 -4.67481 8.08606 5.89688 -6.84603 -41.26406 0.99701 1.39453 34.39923 -15.90719 -3.56477 9.87876 81.95036 -2.48297 -3.51385 32.65542 12.48726 -15.92344 9.86238 -81.75181 -3.63379 2.54507 -7.98382 4.81345 4.99647 -8.7325 -9.32241 -2.00548 -7.93544 -7.69492 4.09141 18.29288 -4.40293 -2.2574 3.08958 8.73443
-0.00743 0.95413 0.00276 143.88788 0 -4.71653 8.07648 6.09668 -6.57616 -41.31056 0.89317 1.43983 34.40249 -16.0258 -3.72854 9.82136 81.87635 -2.45553 -3.4684 32.54906 12.3885 -15.79658 9.77551 -81.74907 -3.57886 2.4961 -7.96188 4.67156 5.46908 -8.77389 -9.26267 -2.00899 -7.89939 -7.60841 4.0017 18.3975 -4.83878 -1.9313 3.19031 9.07116
-0.00998 0.95377 0.00413 143.35813 0 -4.76864 8.06718 6.34631 -6.25578 -41.36977 0.76183 1.46639 34.43609 -16.14228 -3.9059 9.76285 81.78363 -2.4232 -3.42038 32.47757 12.28752 -15.7243 9.69919 -81.75644 -3.52202 2.4434 -7.90786 4.51615 5.98924 -8.85834 -9.19564 -2.01542 -7.88882 -7.54612 3.88669 18.56814 -5.26331 -1.6097 3.29338 9.41897
-0.01238 0.95342 0.00541 142.86977 0 -4.81589 8.05425 6.5744 -5.96711 -41.42115 0.64321 1.49942 34.46119 -16.26018 -4.072 9.70802 81.70132 -2.39449 -3.3766 32.39052 12.18835 -15.63759 9.6195 -81.75669 -3.46698 2.39285 -7.86025 4.36676 6.49363 -8.93787 -9.12856 -2.02078 -7.87126 -7.48112 3.77924 18.71857 -5.67539 -1.29363 3.39246 9.75053
-0.01471 0.95306 0.00658 142.38962 0 -4.86384 8.05715 6.79915 -5.64045 -41.48156 0.52218 1.54119 34.46364 -16.37621 -4.26158 9.63926 81.61096 -2.35972 -3.31944 32.3015 12.08529 -15.50555 9.53326 -81.76703 -3.40774 2.3397 -7.85102 4.21611 6.97101 -8.94798 -9.07615 -2.02486 -7.83234 -7.38105 3.68819 18.82921 -6.16229 -0.94546 3.50395 10.12975
-0.01727 0.95271 0.00803 141.87073 0 -4.91264 8.0258 7.04102 -5.38226 -41.52573 0.40149 1.56018 34.52091 -16.49554 -4.40289 9.59991 81.53293 -2.33665 -3.29004 32.22585 11.99047 -15.48286 9.46383 -81.75948 -3.35714 2.29192 -7.74935 4.06715 7.51883 -9.12241 -8.99087 -2.03257 -7.84647 -7.35987 3.55727 19.03645 -6.48988 -0.66543 3.59009 10.41184
-0.02043 0.9524 0.0102 141.2588 0 -4.96279 7.91115 7.33212 -5.31411 -41.52614 0.2725 1.52221 34.71807 -16.62506 -4.42933 9.6362 81.49337 -2.34494 -3.33378 32.17051 11.91372 -15.73065 9.43256 -81.69357 -3.32762 2.25255 -7.44066 3.90629 8.22202 -9.65998 -8.82207 -2.04703 -7.97636 -7.54957 3.32013 19.51028 -6.38764 -0.57077 3.60621 10.42842
-0.02381 0.95208 0.01263 140.61314 0 -5.01322 7.75977 7.6359 -5.31894 -41.50915 0.14773 1.46186 34.96995 -16.75763 -4.40235 9.70314 81.46694 -2.36556 -3.40634 32.12926 11.84663 -16.08923 9.41886 -81.61043 -3.30731 2.21993 -7.03166 3.75113 8.99736 -10.37706 -8.6198 -2.06539 -8.16122 -7.81787 3.04436 20.07547 -6.12433 -0.54494 3.59669 10.34659
-0.02705 0.95176 0.01493 139.98892 0 -5.06241 7.61795 7.92487 -5.29755 -41.49715 0.0316 1.41069 35.19959 -16.88878 -4.38597 9.75996 81.4345 -2.38193 -3.46844 32.08646 11.77819 -16.4099 9.40086 -81.5395 -3.28515 2.18922 -6.64317 3.60663 9.76059 -11.06365 -8.4288 -2.08385 -8.33963 -8.05105 2.78754 20.58912 -5.92969 -0.48858 3.59847 10.30533
-0.03048 0.95147 0.0173 139.33481 0 -5.11637 7.50678 8.25461 -5.24422 -41.49722 -0.12981 1.36248 35.41977 -17.02105 -4.42907 9.80093 81.40131 -2.39243 -3.5193 32.02305 11.69563 -16.68298 9.36782 -81.45074 -3.25378 2.13798 -6.36291 3.40649 10.44745 -11.53334 -8.25265 -2.09511 -8.44931 -8.28315 2.52314 21.14982 -5.75287 -0.42882 3.60162 10.27894
-0.03356 0.95112 0.01958 138.73711 0 -5.16071 7.32239 8.50075 -5.27649 -41.4687 -0.1959 1.30377 35.67154 -17.15041 -4.33382 9.88187 81.37337 -2.41815 -3.60044 32.00711 11.6463 -17.07699 9.36993 -81.39453 -3.24288 2.13041 -5.82946 3.32282 11.29828 -12.50028 -8.03967 -2.12148 -8.70407 -8.53511 2.26668 21.63031 -5.50199 -0.3929 3.59607 10.20187
-0.03567 0.95059 0.02165 138.2972 0 -5.1752 6.95054 8.52179 -5.51767 -41.35883 0.00344 1.2151 36.00277 -17.28249 -3.88375 10.06816 81.35399 -2.48289 -3.75777 32.10621 11.67377 -17.80889 9.46657 -81.43531 -3.29461 2.24849 -4.66062 3.56739 12.68501 -14.76118 -7.71668 -2.19531 -9.44146 -8.82886 2.03393 21.89324 -5.07647 -0.4019 3.57022 9.97515
-0.03742 0.95001 0.02363 137.91759 0 -5.18078 6.50539 8.45658 -5.84409 -41.22251 0.29811 1.1179 36.36239 -17.40944 -3.29395 10.29289 81.34001 -2.56252 -3.9444 32.25577 11.73677 -18.65162 9.5976 -81.5087 -3.36535 2.40925 -3.23483 3.92735 14.21622 -17.51824 -7.36111 -2.28301 -10.3071 -9.13858 1.81249 22.0674 -4.58407 -0.43316 3.53691 9.70639
-0.03931 0.94947 0.0256 137.51408 0 -5.19216 6.08976 8.42454 -6.13855 -41.10188 0.54711 1.02896 36.70557 -17.53119 -2.7583 10.49875 81.32545 -2.63537 -4.11821 32.38907 11.79171 -19.42416 9.71167 -81.56539 -3.42155 2.54583 -1.89917 4.22957 15.61372 -20.07663 -7.03105 -2.35983 -11.0486 -9.43687 1.59049 22.26416 -4.1283 -0.45705 3.50872 9.4798
-0.04132 0.94887 0.02776 137.09167 0 -5.19515 5.68804 8.41756 -6.40863 -40.96288 0.80605 0.92085 37.06688 -17.68471 -2.25872 10.71268 81.3035 -2.70878 -4.29201 32.49065 11.81259 -20.28826 9.83193 -81.63002 -3.50183 2.70205 -0.6661 4.5552 17.297 -22.54626 -6.65379 -2.45581 -12.06144 -9.75568 1.34602 22.53758 -3.63955 -0.47223 3.47252 9.15514
-0.04299 0.94839 0.0295 136.727 0 -5.21477 5.24147 8.33883 -6.74664 -40.85892 1.067 0.85076 37.39486 -17.77096 -1.65349 10.91716 81.29795 -2.78431 -4.47102 32.67519 11.91302 -20.98156 9.94731 -81.68531 -3.53779 2.82842 0.83235 4.85833 18.42353 -25.2935 -6.36863 -2.51549 -12.54967 -10.03435 1.15377 22.63093 -3.207 -0.50933 3.45132 9.0226
-0.04374 0.94817 0.03021 136.47681 0 -5.27082 4.67968 8.07308 -7.26908 -40.83366 1.3084 0.88976 37.63646 -17.67103 -0.77411 11.09753 81.33728 -2.86251 -4.66868 33.0327 12.222 -21.21873 10.04103 -81.71461 -3.43467 2.85399 3.06784 5.07936 17.93291 -28.87667 -6.33793 -2.46817 -11.46441 -10.19925 1.08375 22.23121 -2.93573 -0.6062 3.47568 9.46127
-0.04416 0.94808 0.03046 136.28856 0 -5.34561 4.07706 7.73967 -7.85288 -40.8489 1.54836 0.96724 37.84034 -17.50369 0.20338 11.26456 81.39265 -2.942 -4.86806 33.4799 12.61027 -21.27238 10.12918 -81.73269 -3.28881 2.85002 5.54765 5.27152 16.88528 -32.68316 -6.40353 -2.38433 -9.86396 -10.32274 1.06929 21.65571 -2.72603 -0.7231 3.51513 10.08968
-0.04478 0.94796 0.03086 136.0918 0 -5.42007 3.49954 7.44407 -8.39716 -40.86225 1.79074 1.02572 38.05369 -17.36853 1.12483 11.43033 81.44009 -3.02078 -5.05931 33.9149 12.96368 -21.38059 10.21877 -81.75005 -3.16998 2.86407 7.87215 5.47227 16.121 -36.26446 -6.42927 -2.31957 -8.56037 -10.464 1.04266 21.17232 -2.49577 -0.82743 3.54625 10.61161
-0.04518 0.94772 0.03154 135.81383 0 -5.46162 2.89232 7.11666 -8.99526 -40.8064 2.03096 1.08962 38.3028 -17.22741 2.09966 11.62924 81.49064 -3.10141 -5.28358 34.2318 13.31308 -21.6115 10.31142 -81.79036 -3.01841 2.85806 10.39605 5.69888 15.23286 -40.39529 -6.43392 -2.24532 -6.99636 -10.60982 0.96276 20.63612 -2.23192 -0.94732 3.58317 11.21697
-0.04597 0.94776 0.0315 135.71944 0 -5.57382 2.33761 6.83928 -9.49259 -40.90282 2.27162 1.15231 38.46515 -17.08182 2.98463 11.75436 81.53816 -3.17728 -5.43792 34.81441 13.68956 -21.54559 10.39941 -81.78323 -2.92626 2.88899 12.55497 5.85989 14.47029 -43.41573 -6.51014 -2.18133 -5.85086 -10.73669 1.00488 20.16698 -2.05329 -1.03912 3.61186 11.69485
-0.0479 0.94862 0.02966 136.11291 0 -5.89763 1.9439 6.72818 -9.71428 -41.42657 2.53489 1.19543 38.42311 -16.94926 3.59886 11.68831 81.57585 -3.24815 -5.40863 36.1168 14.11748 -20.67268 10.44613 -81.62395 -2.99722 3.00463 13.68093 5.87523 14.1715 -43.41777 -6.72143 -2.16012 -5.9834 -10.81605 1.38751 19.94618 -2.09822 -1.04936 3.61298 11.76842
-0.05025 0.94974 0.02709 136.68966 0 -6.28781 1.60397 6.66807 -9.82864 -42.09978 2.79439 1.23745 38.29073 -16.81341 4.11902 11.54674 81.60949 -3.31244 -5.30694 37.68185 14.57003 -19.51374 10.49399 -81.42572 -3.1332 3.16226 14.42287 5.81975 14.01883 -42.27348 -7.00752 -2.14942 -6.55336 -10.87868 1.8878 19.79547 -2.22682 -1.03023 3.60558 11.70825
-0.05242 0.95069 0.0248 137.18454 0 -6.63409 1.23551 6.57743 -9.98028 -42.69291 3.04119 1.28436 38.18167 -16.67261 4.67966 11.43314 81.64326 -3.37426 -5.23171 39.12101 15.01426 -18.50521 10.56037 -81.25563 -3.24465 3.31723 15.31725 5.77736 13.81411 -41.58367 -7.28684 -2.13019 -6.92676 -10.95237 2.32289 19.60004 -2.3149 -1.02398 3.6029 11.71362
-0.05452 0.95185 0.02271 137.67477 0 -7.03984 0.88175 6.51533 -10.18301 -43.33621 3.34831 1.31361 38.14342 -16.55453 5.25037 11.34496 81.68462 -3.45956 -5.1836 40.59043 15.45093 -17.40044 10.54519 -81.02429 -3.32645 3.40417 16.31565 5.81428 13.53902 -41.18054 -7.46015 -2.12543 -7.27927 -11.01004 2.80934 19.45326 -2.41437 -1.0209 3.59714 11.70631
-0.05688 0.95263 0.02002 138.21846 0 -7.33623 0.51207 6.40691 -10.25256 -43.91319 3.52958 1.37947 37.94018 -16.39189 5.7803 11.18725 81.70923 -3.4939 -5.06197 42.05859 15.9059 -16.43521 10.70147 -80.9325 -3.49478 3.6403 17.00032 5.67001 13.44042 -39.90772 -7.86378 -2.09367 -7.77781 -11.09765 3.21617 19.22346 -2.51074 -1.00335 3.59562 11.69017
-0.0598 0.95232 0.01602 138.85623 0 -7.32318 0.07409 6.15815 -9.98442 -44.24236 3.35862 1.54156 37.2736 -16.08587 6.18606 10.84679 81.68663 -3.39351 -4.75408 43.45207 16.42432 -15.88696 11.32098 -81.05039 -3.81122 4.30263 16.93449 5.03984 13.90162 -36.49395 -8.94608 -1.98373 -8.64532 -11.27188 3.3735 18.75325 -2.56536 -0.95814 3.60739 11.69013
